<?xml version="1.0" encoding="utf-8"?>
<!-- Generator: Adobe Illustrator 25.4.1, SVG Export Plug-In . SVG Version: 6.00 Build 0)  -->
<svg version="1.1" id="Capa_1" xmlns="http://www.w3.org/2000/svg" xmlns:xlink="http://www.w3.org/1999/xlink" x="0px" y="0px"
	 viewBox="0 0 425.2 141.7" style="enable-background:new 0 0 425.2 141.7;" xml:space="preserve">
<style type="text/css">
	.st0{fill:#F5C828;}
</style>
<g>
	<path class="st0" d="M60.7,24.9H46.5c-3.8,0-6.8-3-6.8-6.8v-0.3c0-3.8,3-6.8,6.8-6.8h14.3c3.8,0,6.8,3,6.8,6.8v0.3
		C67.5,21.8,64.5,24.9,60.7,24.9z"/>
	<path class="st0" d="M60.7,130.8H46.5c-3.8,0-6.8-3-6.8-6.8v-0.3c0-3.8,3-6.8,6.8-6.8h14.3c3.8,0,6.8,3,6.8,6.8v0.3
		C67.5,127.8,64.5,130.8,60.7,130.8z"/>
	<g>
		<g>
			<path class="st0" d="M46.5,77.8H18.3c-3.8,0-6.8-3-6.8-6.8v-0.3c0-3.8,3-6.8,6.8-6.8h28.2c3.8,0,6.8,3,6.8,6.8V71
				C53.3,74.8,50.2,77.8,46.5,77.8z"/>
			<path class="st0" d="M39.4,124V17.7c0-3.8,3-6.8,6.8-6.8h0.3c3.8,0,6.8,3,6.8,6.8V124c0,3.8-3,6.8-6.8,6.8h-0.3
				C42.4,130.8,39.4,127.8,39.4,124z"/>
		</g>
	</g>
	<path class="st0" d="M364.5,116.9h14.3c3.8,0,6.8,3,6.8,6.8v0.3c0,3.8-3,6.8-6.8,6.8h-14.3c-3.8,0-6.8-3-6.8-6.8v-0.3
		C357.7,119.9,360.7,116.9,364.5,116.9z"/>
	<path class="st0" d="M364.5,10.9h14.3c3.8,0,6.8,3,6.8,6.8V18c0,3.8-3,6.8-6.8,6.8h-14.3c-3.8,0-6.8-3-6.8-6.8v-0.3
		C357.7,14,360.7,10.9,364.5,10.9z"/>
	<g>
		<g>
			<path class="st0" d="M378.7,63.9h28.2c3.8,0,6.8,3,6.8,6.8V71c0,3.8-3,6.8-6.8,6.8h-28.2c-3.8,0-6.8-3-6.8-6.8v-0.3
				C371.9,66.9,375,63.9,378.7,63.9z"/>
			<path class="st0" d="M385.8,17.7V124c0,3.8-3,6.8-6.8,6.8h-0.3c-3.8,0-6.8-3-6.8-6.8V17.7c0-3.8,3-6.8,6.8-6.8h0.3
				C382.8,10.9,385.8,14,385.8,17.7z"/>
		</g>
	</g>
</g>
<g>
	<path d="M68.3,66.9l6.1-4.6c1.2,2.2,2.9,3.3,4.3,3.3c2.4,0,3.8-1.2,3.8-5.5V38.3h9.1v22.5c0,6.9-3.7,12.6-11.7,12.6
		C74.4,73.4,70.8,71.3,68.3,66.9z"/>
	<path d="M98.2,62.6V46.3h9.1v15.2c0,3.4,0.8,4.2,2.6,4.2c1.7,0,2.6-0.6,3.8-2.3V46.3h9.1v26.5h-7.4l-0.6-3.5h-0.2
		c-2.1,2.5-4.6,4.1-8.2,4.1C100.6,73.4,98.2,69.1,98.2,62.6z"/>
	<path d="M127.9,65.2c0-5.5,4.2-8.6,14.4-9.6c-0.2-1.9-1.4-2.8-3.7-2.8c-1.9,0-3.9,0.7-6.7,2.2l-3.2-5.9c3.7-2.2,7.5-3.5,11.7-3.5
		c6.9,0,11,3.7,11,12.4v14.7H144l-0.6-2.5h-0.2c-2.1,1.9-4.5,3.2-7.3,3.2C130.9,73.4,127.9,69.6,127.9,65.2z M142.4,64.6V61
		c-4.3,0.6-5.7,2-5.7,3.5c0,1.2,0.8,1.9,2.4,1.9C140.6,66.4,141.4,65.6,142.4,64.6z"/>
	<path d="M157.4,46.3h7.4l0.6,3.2h0.2c2.1-2,4.8-3.8,8.4-3.8c5.8,0,8.3,4.2,8.3,10.8v16.3h-9.1V57.6c0-3.4-0.8-4.2-2.6-4.2
		c-1.7,0-2.6,0.7-4,2v17.4h-9.1L157.4,46.3L157.4,46.3z"/>
	<path d="M197.5,67.2l14.1-21.3h-12.7v-7.6h24v5.5l-14.1,21.3H223v7.6h-25.4v-5.5H197.5z"/>
	<path d="M226,65.2c0-5.5,4.2-8.6,14.4-9.6c-0.2-1.9-1.4-2.8-3.7-2.8c-1.9,0-3.9,0.7-6.7,2.2l-3.2-5.9c3.7-2.2,7.5-3.5,11.7-3.5
		c6.9,0,11,3.7,11,12.4v14.7h-7.4l-0.6-2.5h-0.2c-2.1,1.9-4.5,3.2-7.3,3.2C229,73.4,226,69.6,226,65.2z M240.4,64.6V61
		c-4.3,0.6-5.7,2-5.7,3.5c0,1.2,0.8,1.9,2.4,1.9C238.6,66.4,239.5,65.6,240.4,64.6z"/>
	<path d="M263.5,69.9h-0.2l-0.7,2.9h-7.1V35.9h9.1v8.6l-0.2,3.8c1.9-1.7,4.2-2.6,6.5-2.6c6.3,0,10.3,5.3,10.3,13.4
		c0,9.2-5.4,14.4-11,14.4C267.9,73.4,265.5,72.2,263.5,69.9z M271.9,59.2c0-4.3-1.3-6.1-3.7-6.1c-1.4,0-2.4,0.5-3.6,1.9v9.8
		c1.1,1,2.2,1.3,3.4,1.3C270.1,66,271.9,64.3,271.9,59.2z"/>
	<path d="M284.6,65.2c0-5.5,4.2-8.6,14.4-9.6c-0.2-1.9-1.4-2.8-3.7-2.8c-1.9,0-3.9,0.7-6.7,2.2l-3.2-5.9c3.7-2.2,7.5-3.5,11.7-3.5
		c6.9,0,11,3.7,11,12.4v14.7h-7.4l-0.6-2.5h-0.2c-2.1,1.9-4.5,3.2-7.3,3.2C287.6,73.4,284.6,69.6,284.6,65.2z M299,64.6V61
		c-4.3,0.6-5.7,2-5.7,3.5c0,1.2,0.8,1.9,2.4,1.9C297.2,66.4,298.1,65.6,299,64.6z"/>
	<path d="M314.1,63.4V35.9h9.1v27.9c0,1.8,0.8,2.3,1.5,2.3c0.3,0,0.5,0,1-0.1l1.1,6.7c-1,0.4-2.4,0.7-4.5,0.7
		C316.1,73.4,314.1,69.4,314.1,63.4z"/>
	<path d="M328.8,65.2c0-5.5,4.2-8.6,14.4-9.6c-0.2-1.9-1.4-2.8-3.7-2.8c-1.9,0-3.9,0.7-6.7,2.2l-3.2-5.9c3.7-2.2,7.5-3.5,11.7-3.5
		c6.9,0,11,3.7,11,12.4v14.7h-7.4l-0.6-2.5h-0.2c-2.1,1.9-4.5,3.2-7.3,3.2C331.8,73.4,328.8,69.6,328.8,65.2z M343.2,64.6V61
		c-4.3,0.6-5.7,2-5.7,3.5c0,1.2,0.8,1.9,2.4,1.9C341.4,66.4,342.3,65.6,343.2,64.6z"/>
</g>
<path d="M103.4,89.3h2.6l2.1,10.7c0.4,2.1,0.8,4.2,1.2,6.3h0.1c0.4-2.1,0.9-4.2,1.4-6.3l2.7-10.7h2.3l2.7,10.7
	c0.5,2.1,0.9,4.2,1.4,6.3h0.1c0.4-2.1,0.7-4.3,1.1-6.3l2.1-10.7h2.4l-4.1,19.7h-3l-3-11.8c-0.3-1.5-0.7-3-0.9-4.5h-0.1
	c-0.3,1.5-0.6,2.9-1,4.5l-2.9,11.8h-3L103.4,89.3z"/>
<path d="M127.7,101.8c0-4.7,3.2-7.7,6.6-7.7c3.7,0,5.8,2.7,5.8,6.8c0,0.5,0,1-0.1,1.4h-9.8c0.2,3.1,2.1,5.1,4.8,5.1
	c1.4,0,2.5-0.5,3.6-1.2l0.9,1.6c-1.3,0.8-2.8,1.5-4.8,1.5C130.8,109.4,127.7,106.5,127.7,101.8z M137.9,100.6c0-2.9-1.3-4.5-3.6-4.5
	c-2.1,0-3.9,1.6-4.2,4.5H137.9z"/>
<path d="M145.9,107.5L145.9,107.5l-0.3,1.5h-2V87.7h2.5v5.8l-0.1,2.6c1.3-1.1,3-2,4.6-2c3.8,0,5.8,2.9,5.8,7.4c0,5-3,7.9-6.3,7.9
	C148.7,109.4,147.2,108.7,145.9,107.5z M153.8,101.5c0-3.2-1.1-5.4-3.8-5.4c-1.2,0-2.5,0.7-3.9,2v7.6c1.3,1.1,2.6,1.5,3.6,1.5
	C152.1,107.3,153.8,105.1,153.8,101.5z"/>
<path d="M160.3,89.3h4.9c6.1,0,9.3,3.5,9.3,9.8s-3.2,9.9-9.2,9.9h-5V89.3z M165.1,107c4.6,0,6.9-2.9,6.9-7.9s-2.3-7.7-6.9-7.7h-2.2
	V107H165.1z"/>
<path d="M177.5,101.8c0-4.7,3.2-7.7,6.6-7.7c3.7,0,5.8,2.7,5.8,6.8c0,0.5,0,1-0.1,1.4H180c0.2,3.1,2.1,5.1,4.8,5.1
	c1.4,0,2.5-0.5,3.6-1.2l0.9,1.6c-1.3,0.8-2.8,1.5-4.8,1.5C180.6,109.4,177.5,106.5,177.5,101.8z M187.7,100.6c0-2.9-1.3-4.5-3.6-4.5
	c-2.1,0-3.9,1.6-4.2,4.5H187.7z"/>
<path d="M191.5,94.4h2.5l2.8,8.3c0.4,1.4,0.9,2.9,1.3,4.3h0.1c0.4-1.4,0.9-2.9,1.3-4.3l2.8-8.3h2.4l-5.2,14.6h-2.9L191.5,94.4z"/>
<path d="M212.1,103.9c0-5.8,9-6.8,9-11c0-1.1-0.5-2.2-1.9-2.2c-1.5,0-2.4,1.2-2.4,2.9c0,3.7,4,8.6,7.8,11.4c1.6,1.2,3.1,2,4.3,2.3
	l-0.7,2.1c-1.6-0.4-3.3-1.3-5.1-2.7c-4.3-3.3-8.5-8.8-8.5-13c0-2.6,1.8-4.7,4.5-4.7c2.4,0,3.9,1.6,3.9,3.9c0,5.1-8.6,6.6-8.6,10.9
	c0,2.2,1.7,3.6,3.9,3.6c1.6,0,3.2-0.9,4.5-2.3c1.6-1.7,2.8-4,3.5-6.7h2.3c-0.9,2.9-2.2,5.6-4.1,7.9c-1.7,1.8-3.7,3.1-6.5,3.1
	C214.5,109.4,212.1,107.1,212.1,103.9z"/>
<path d="M238.1,89.3h4.9c6.1,0,9.3,3.5,9.3,9.8s-3.2,9.9-9.2,9.9h-5V89.3z M242.8,107c4.6,0,6.9-2.9,6.9-7.9s-2.3-7.7-6.9-7.7h-2.2
	V107H242.8z"/>
<path d="M255.2,101.8c0-4.7,3.2-7.7,6.6-7.7c3.7,0,5.8,2.7,5.8,6.8c0,0.5,0,1-0.1,1.4h-9.8c0.2,3.1,2.1,5.1,4.8,5.1
	c1.4,0,2.5-0.5,3.6-1.2l0.9,1.6c-1.3,0.8-2.8,1.5-4.8,1.5C258.3,109.4,255.2,106.5,255.2,101.8z M265.4,100.6c0-2.9-1.3-4.5-3.6-4.5
	c-2,0-3.9,1.6-4.2,4.5H265.4z"/>
<path d="M269.6,107.4l1.2-1.6c1.3,1,2.6,1.7,4.3,1.7c1.9,0,2.9-1,2.9-2.3c0-1.5-1.7-2.2-3.3-2.8c-2-0.7-4.3-1.8-4.3-4.2
	c0-2.3,1.9-4.1,5-4.1c1.8,0,3.4,0.7,4.5,1.6l-1.2,1.6c-1-0.7-2-1.3-3.3-1.3c-1.8,0-2.7,1-2.7,2.1c0,1.4,1.6,1.9,3.2,2.5
	c2.1,0.8,4.4,1.6,4.4,4.4c0,2.4-1.9,4.3-5.3,4.3C272.9,109.4,270.9,108.5,269.6,107.4z"/>
<path d="M283.3,89.8c0-1,0.7-1.6,1.7-1.6s1.7,0.6,1.7,1.6c0,0.9-0.7,1.6-1.7,1.6C284.1,91.4,283.3,90.8,283.3,89.8z M283.8,94.4h2.5
	V109h-2.5V94.4z"/>
<path d="M306.7,94.4h2l0.2,2.1h0.1c1.4-1.4,2.9-2.5,4.9-2.5c3.1,0,4.5,2,4.5,5.7v9.2h-2.5V100c0-2.7-0.8-3.9-2.8-3.9
	c-1.5,0-2.5,0.8-4,2.2V109h-2.5L306.7,94.4L306.7,94.4z"/>
<path d="M290,111.8c0-1.2,0.8-2.4,2.1-3.3v-0.1c-0.7-0.5-1.3-1.2-1.3-2.4c0-1.2,0.8-2.2,1.6-2.7v-0.1c-1-0.8-1.9-2.2-1.9-3.9
	c0-3.2,2.5-5.2,5.5-5.2c0.8,0,1.5,0.2,2.1,0.4h5.1v1.9h-3c0.7,0.7,1.2,1.8,1.2,3c0,3.1-2.4,5.1-5.3,5.1c-0.7,0-1.5-0.2-2.2-0.5
	c-0.5,0.4-0.9,0.9-0.9,1.7c0,0.9,0.6,1.6,2.6,1.6h2.8c3.4,0,5.1,1.1,5.1,3.5c0,2.7-2.9,5-7.4,5C292.5,115.7,290,114.3,290,111.8z
	 M301,111.1c0-1.3-1-1.8-2.9-1.8h-2.5c-0.6,0-1.2-0.1-1.9-0.2c-1,0.7-1.5,1.6-1.5,2.4c0,1.6,1.6,2.6,4.2,2.6
	C299.2,114,301,112.6,301,111.1z M299.2,99.3c0-2.1-1.4-3.4-3.1-3.4s-3.1,1.3-3.1,3.4s1.4,3.5,3.1,3.5
	C297.8,102.7,299.2,101.4,299.2,99.3z"/>
</svg>
