<?xml version="1.0" encoding="utf-8"?>
<!-- Generator: Adobe Illustrator 25.4.1, SVG Export Plug-In . SVG Version: 6.00 Build 0)  -->
<svg version="1.1" id="Capa_1" xmlns="http://www.w3.org/2000/svg" xmlns:xlink="http://www.w3.org/1999/xlink" x="0px" y="0px"
	 viewBox="0 0 155.3 425.2" style="enable-background:new 0 0 155.3 425.2;" xml:space="preserve">
<style type="text/css">
	.st0{fill:#F5C828;}
</style>
<path class="st0" d="M101.8,27.6h36.8c6.7,0,12.2-5.4,12.2-12.2v0c0-6.7-5.4-12.2-12.2-12.2h-49c-6.7,0-12.2,5.4-12.2,12.2v0v197.2
	H16.7c-6.7,0-12.2,5.4-12.2,12.2s5.4,12.2,12.2,12.2h60.8v172.9c0,6.7,5.4,12.2,12.2,12.2h49c6.7,0,12.2-5.4,12.2-12.2
	c0-6.7-5.4-12.2-12.2-12.2h-36.8V27.6z"/>
</svg>
