<?xml version="1.0" encoding="utf-8"?>
<!-- Generator: Adobe Illustrator 25.4.1, SVG Export Plug-In . SVG Version: 6.00 Build 0)  -->
<svg version="1.1" id="Capa_1" xmlns="http://www.w3.org/2000/svg" xmlns:xlink="http://www.w3.org/1999/xlink" x="0px" y="0px"
	 viewBox="0 0 141.7 141.7" style="enable-background:new 0 0 141.7 141.7;" xml:space="preserve">
<style type="text/css">
	.st0{fill:#F5C828;}
</style>
<g>
	<path class="st0" d="M54.1,25.9H40.5c-3.8,0-6.8-3-6.8-6.8v0c0-3.8,3-6.8,6.8-6.8h13.6c3.8,0,6.8,3,6.8,6.8v0
		C60.9,22.9,57.9,25.9,54.1,25.9z"/>
	<path class="st0" d="M54.1,129.4H40.5c-3.8,0-6.8-3-6.8-6.8v0c0-3.8,3-6.8,6.8-6.8h13.6c3.8,0,6.8,3,6.8,6.8v0
		C60.9,126.3,57.9,129.4,54.1,129.4z"/>
	<g>
		<g>
			<path class="st0" d="M40.2,77.7H13c-3.8,0-6.8-3-6.8-6.8v0c0-3.8,3-6.8,6.8-6.8h27.2c3.8,0,6.8,3,6.8,6.8v0
				C47,74.6,44,77.7,40.2,77.7z"/>
			<path class="st0" d="M33.4,122.6V19.2c0-3.8,3-6.8,6.8-6.8h0c3.8,0,6.8,3,6.8,6.8v103.4c0,3.8-3,6.8-6.8,6.8h0
				C36.5,129.4,33.4,126.3,33.4,122.6z"/>
		</g>
	</g>
	<path class="st0" d="M87.6,115.8h13.6c3.8,0,6.8,3,6.8,6.8v0c0,3.8-3,6.8-6.8,6.8H87.6c-3.8,0-6.8-3-6.8-6.8v0
		C80.8,118.8,83.8,115.8,87.6,115.8z"/>
	<path class="st0" d="M87.6,12.4h13.6c3.8,0,6.8,3,6.8,6.8v0c0,3.8-3,6.8-6.8,6.8H87.6c-3.8,0-6.8-3-6.8-6.8v0
		C80.8,15.4,83.8,12.4,87.6,12.4z"/>
	<g>
		<g>
			<path class="st0" d="M101.5,64.1h27.2c3.8,0,6.8,3,6.8,6.8v0c0,3.8-3,6.8-6.8,6.8h-27.2c-3.8,0-6.8-3-6.8-6.8v0
				C94.7,67.1,97.8,64.1,101.5,64.1z"/>
			<path class="st0" d="M108.3,19.2v103.4c0,3.8-3,6.8-6.8,6.8h0c-3.8,0-6.8-3-6.8-6.8V19.2c0-3.8,3-6.8,6.8-6.8h0
				C105.3,12.4,108.3,15.4,108.3,19.2z"/>
		</g>
	</g>
</g>
</svg>
